# xmcd CD database file
#
# Track frame offsets:
#	150
#	19805
#	37802
#	58287
#	77307
#	96910
#	111732
#	132190
#	148035
#	168625
#	190217
#	209525
#	228337
#	253647
#	275422
#
# Disc length: 3898 seconds
#
# Revision: 0
# Processed by: cddbd v1.5.1PL0 Copyright (c) Steve Scherf et al.
# Submitted via: CDex 1.51
#
DISCID=d90f380f
DTITLE=森進一 - 35周年記念アルバム 1966-1999 DISC3
DYEAR=2000
DGENRE=J-POP
TTITLE0=襟裳岬
TTITLE1=甘ったれ
TTITLE2=冬のリヴィエラ
TTITLE3=紐育物語 (New York Story)
TTITLE4=モロッコ
TTITLE5=待たせたね
TTITLE6=夢・ステファニー (ロマンティック・トリップ)
TTITLE7=サマータイム (Summertime)
TTITLE8=千年純情
TTITLE9=雨
TTITLE10=風のエレジー
TTITLE11=イエスタデイ
TTITLE12=悲しみの器
TTITLE13=夜の無言(しじま)
TTITLE14=ウイスキー色の街で
EXTD=YEAR: 2000
EXTT0=
EXTT1=
EXTT2=
EXTT3=
EXTT4=
EXTT5=
EXTT6=
EXTT7=
EXTT8=
EXTT9=
EXTT10=
EXTT11=
EXTT12=
EXTT13=
EXTT14=
PLAYORDER=
